<svg width="400" height="400" viewBox="0 0 400 400" xmlns="http://www.w3.org/2000/svg">
  <defs>
    <filter id="roughPaper" x="0%" y="0%" width="100%" height="100%">
      <feTurbulence baseFrequency="0.04" numOctaves="5" result="noise"/>
      <feDisplacementMap in="SourceGraphic" in2="noise" scale="1.5"/>
    </filter>
    
    <pattern id="parchmentPattern" patternUnits="userSpaceOnUse" width="100" height="100">
      <rect width="100" height="100" fill="#faf8f3"/>
      <circle cx="20" cy="30" r="0.5" fill="#e8dcc6" opacity="0.3"/>
      <circle cx="70" cy="15" r="0.3" fill="#d4af7a" opacity="0.2"/>
      <circle cx="45" cy="80" r="0.4" fill="#c7b299" opacity="0.25"/>
      <circle cx="85" cy="60" r="0.2" fill="#8b7355" opacity="0.15"/>
      <path d="M10,50 Q30,45 50,50 T90,50" stroke="#e8dcc6" stroke-width="0.5" fill="none" opacity="0.1"/>
      <path d="M15,75 Q35,70 55,75 T95,75" stroke="#d4af7a" stroke-width="0.3" fill="none" opacity="0.1"/>
    </pattern>
    
    <radialGradient id="ageGradient" cx="50%" cy="50%" r="70%">
      <stop offset="0%" style="stop-color:#faf8f3;stop-opacity:1"/>
      <stop offset="70%" style="stop-color:#f0eee8;stop-opacity:1"/>
      <stop offset="100%" style="stop-color:#e8dcc6;stop-opacity:1"/>
    </radialGradient>
  </defs>
  
  <!-- Base parchment background -->
  <rect width="400" height="400" fill="url(#ageGradient)"/>
  
  <!-- Texture overlay -->
  <rect width="400" height="400" fill="url(#parchmentPattern)" opacity="0.6"/>
  
  <!-- Age spots and stains -->
  <ellipse cx="80" cy="120" rx="15" ry="8" fill="#d4af7a" opacity="0.1" transform="rotate(25 80 120)"/>
  <ellipse cx="320" cy="280" rx="20" ry="12" fill="#c7b299" opacity="0.08" transform="rotate(-15 320 280)"/>
  <ellipse cx="150" cy="350" rx="12" ry="6" fill="#8b7355" opacity="0.06" transform="rotate(45 150 350)"/>
  
  <!-- Subtle wear marks -->
  <path d="M50,100 Q100,95 150,100 Q200,105 250,100" stroke="#e8dcc6" stroke-width="1" fill="none" opacity="0.3"/>
  <path d="M75,200 Q125,195 175,200 Q225,205 275,200" stroke="#d4af7a" stroke-width="0.8" fill="none" opacity="0.2"/>
  <path d="M100,300 Q150,295 200,300 Q250,305 300,300" stroke="#c7b299" stroke-width="0.6" fill="none" opacity="0.15"/>
  
  <!-- Paper texture filter -->
  <rect width="400" height="400" fill="none" filter="url(#roughPaper)" opacity="0.1"/>
</svg>
